<mxfile host="app.diagrams.net" modified="2024-07-17T08:59:58.461Z" agent="Mozilla/5.0 (Macintosh; Intel Mac OS X 10.15; rv:127.0) Gecko/20100101 Firefox/127.0" etag="6vOhxTi33U5iDUvk8FVJ" version="24.6.5" type="device">
  <diagram name="Page-1" id="3ES23oUTcnJr58dhijOL">
    <mxGraphModel dx="1032" dy="574" grid="1" gridSize="10" guides="1" tooltips="1" connect="1" arrows="1" fold="1" page="1" pageScale="1" pageWidth="850" pageHeight="1100" math="0" shadow="0">
      <root>
        <mxCell id="0" />
        <mxCell id="1" parent="0" />
        <mxCell id="yFCFxImPYAyrYMi73x1P-30" value="" style="rounded=1;whiteSpace=wrap;html=1;" vertex="1" parent="1">
          <mxGeometry x="330" y="400" width="120" height="60" as="geometry" />
        </mxCell>
        <mxCell id="yFCFxImPYAyrYMi73x1P-29" value="" style="rounded=1;whiteSpace=wrap;html=1;" vertex="1" parent="1">
          <mxGeometry x="580" y="460" width="120" height="60" as="geometry" />
        </mxCell>
        <mxCell id="yFCFxImPYAyrYMi73x1P-28" value="" style="rounded=1;whiteSpace=wrap;html=1;" vertex="1" parent="1">
          <mxGeometry x="580" y="280" width="120" height="60" as="geometry" />
        </mxCell>
        <mxCell id="yFCFxImPYAyrYMi73x1P-27" value="" style="rounded=1;whiteSpace=wrap;html=1;" vertex="1" parent="1">
          <mxGeometry x="580" y="150" width="120" height="60" as="geometry" />
        </mxCell>
        <mxCell id="yFCFxImPYAyrYMi73x1P-1" value="URL dispatcher / frontier" style="rounded=1;whiteSpace=wrap;html=1;" vertex="1" parent="1">
          <mxGeometry x="320" y="140" width="120" height="60" as="geometry" />
        </mxCell>
        <mxCell id="yFCFxImPYAyrYMi73x1P-3" style="edgeStyle=orthogonalEdgeStyle;rounded=0;orthogonalLoop=1;jettySize=auto;html=1;" edge="1" parent="1" source="yFCFxImPYAyrYMi73x1P-2" target="yFCFxImPYAyrYMi73x1P-22">
          <mxGeometry relative="1" as="geometry" />
        </mxCell>
        <mxCell id="yFCFxImPYAyrYMi73x1P-2" value="Seed URLs" style="rounded=1;whiteSpace=wrap;html=1;" vertex="1" parent="1">
          <mxGeometry x="220" y="110" width="80" height="40" as="geometry" />
        </mxCell>
        <mxCell id="yFCFxImPYAyrYMi73x1P-5" style="edgeStyle=orthogonalEdgeStyle;rounded=0;orthogonalLoop=1;jettySize=auto;html=1;entryX=1;entryY=0.5;entryDx=0;entryDy=0;" edge="1" parent="1" source="yFCFxImPYAyrYMi73x1P-4" target="yFCFxImPYAyrYMi73x1P-1">
          <mxGeometry relative="1" as="geometry" />
        </mxCell>
        <mxCell id="yFCFxImPYAyrYMi73x1P-6" value="Asks for URL" style="edgeLabel;html=1;align=center;verticalAlign=middle;resizable=0;points=[];" vertex="1" connectable="0" parent="yFCFxImPYAyrYMi73x1P-5">
          <mxGeometry x="0.3385" y="2" relative="1" as="geometry">
            <mxPoint x="17" y="8" as="offset" />
          </mxGeometry>
        </mxCell>
        <mxCell id="yFCFxImPYAyrYMi73x1P-8" style="edgeStyle=orthogonalEdgeStyle;rounded=0;orthogonalLoop=1;jettySize=auto;html=1;entryX=0.5;entryY=1;entryDx=0;entryDy=0;" edge="1" parent="1" source="yFCFxImPYAyrYMi73x1P-4" target="yFCFxImPYAyrYMi73x1P-7">
          <mxGeometry relative="1" as="geometry" />
        </mxCell>
        <mxCell id="yFCFxImPYAyrYMi73x1P-11" style="edgeStyle=orthogonalEdgeStyle;rounded=0;orthogonalLoop=1;jettySize=auto;html=1;entryX=0.5;entryY=0;entryDx=0;entryDy=0;" edge="1" parent="1" source="yFCFxImPYAyrYMi73x1P-4" target="yFCFxImPYAyrYMi73x1P-10">
          <mxGeometry relative="1" as="geometry" />
        </mxCell>
        <mxCell id="yFCFxImPYAyrYMi73x1P-4" value="URL fetching worker" style="rounded=1;whiteSpace=wrap;html=1;" vertex="1" parent="1">
          <mxGeometry x="570" y="140" width="120" height="60" as="geometry" />
        </mxCell>
        <mxCell id="yFCFxImPYAyrYMi73x1P-9" style="edgeStyle=orthogonalEdgeStyle;rounded=0;orthogonalLoop=1;jettySize=auto;html=1;exitX=0.75;exitY=1;exitDx=0;exitDy=0;entryX=0.75;entryY=0;entryDx=0;entryDy=0;" edge="1" parent="1" source="yFCFxImPYAyrYMi73x1P-7" target="yFCFxImPYAyrYMi73x1P-4">
          <mxGeometry relative="1" as="geometry" />
        </mxCell>
        <mxCell id="yFCFxImPYAyrYMi73x1P-7" value="DNS resolvers" style="rounded=1;whiteSpace=wrap;html=1;" vertex="1" parent="1">
          <mxGeometry x="570" y="50" width="120" height="60" as="geometry" />
        </mxCell>
        <mxCell id="yFCFxImPYAyrYMi73x1P-13" style="edgeStyle=orthogonalEdgeStyle;rounded=0;orthogonalLoop=1;jettySize=auto;html=1;" edge="1" parent="1" source="yFCFxImPYAyrYMi73x1P-10" target="yFCFxImPYAyrYMi73x1P-12">
          <mxGeometry relative="1" as="geometry" />
        </mxCell>
        <mxCell id="yFCFxImPYAyrYMi73x1P-14" value="Store if no duplicate" style="edgeLabel;html=1;align=center;verticalAlign=middle;resizable=0;points=[];" vertex="1" connectable="0" parent="yFCFxImPYAyrYMi73x1P-13">
          <mxGeometry x="-0.25" y="1" relative="1" as="geometry">
            <mxPoint x="15" y="-9" as="offset" />
          </mxGeometry>
        </mxCell>
        <mxCell id="yFCFxImPYAyrYMi73x1P-34" style="edgeStyle=orthogonalEdgeStyle;rounded=0;orthogonalLoop=1;jettySize=auto;html=1;exitX=0.917;exitY=0.017;exitDx=0;exitDy=0;exitPerimeter=0;" edge="1" parent="1" source="yFCFxImPYAyrYMi73x1P-10" target="yFCFxImPYAyrYMi73x1P-33">
          <mxGeometry relative="1" as="geometry" />
        </mxCell>
        <mxCell id="yFCFxImPYAyrYMi73x1P-10" value="Rendering / parsing service" style="rounded=1;whiteSpace=wrap;html=1;" vertex="1" parent="1">
          <mxGeometry x="570" y="270" width="120" height="60" as="geometry" />
        </mxCell>
        <mxCell id="yFCFxImPYAyrYMi73x1P-12" value="Content storage" style="shape=cylinder3;whiteSpace=wrap;html=1;boundedLbl=1;backgroundOutline=1;size=15;" vertex="1" parent="1">
          <mxGeometry x="950" y="260" width="60" height="80" as="geometry" />
        </mxCell>
        <mxCell id="yFCFxImPYAyrYMi73x1P-19" style="edgeStyle=orthogonalEdgeStyle;rounded=0;orthogonalLoop=1;jettySize=auto;html=1;" edge="1" parent="1" source="yFCFxImPYAyrYMi73x1P-16" target="yFCFxImPYAyrYMi73x1P-18">
          <mxGeometry relative="1" as="geometry" />
        </mxCell>
        <mxCell id="yFCFxImPYAyrYMi73x1P-16" value="URL parser" style="rounded=1;whiteSpace=wrap;html=1;" vertex="1" parent="1">
          <mxGeometry x="570" y="450" width="120" height="60" as="geometry" />
        </mxCell>
        <mxCell id="yFCFxImPYAyrYMi73x1P-20" style="edgeStyle=orthogonalEdgeStyle;rounded=0;orthogonalLoop=1;jettySize=auto;html=1;entryX=0.5;entryY=1;entryDx=0;entryDy=0;" edge="1" parent="1" source="yFCFxImPYAyrYMi73x1P-18" target="yFCFxImPYAyrYMi73x1P-1">
          <mxGeometry relative="1" as="geometry" />
        </mxCell>
        <mxCell id="yFCFxImPYAyrYMi73x1P-21" value="Enqueue" style="edgeLabel;html=1;align=center;verticalAlign=middle;resizable=0;points=[];" vertex="1" connectable="0" parent="yFCFxImPYAyrYMi73x1P-20">
          <mxGeometry x="0.1474" y="-4" relative="1" as="geometry">
            <mxPoint x="-44" as="offset" />
          </mxGeometry>
        </mxCell>
        <mxCell id="yFCFxImPYAyrYMi73x1P-23" style="edgeStyle=orthogonalEdgeStyle;rounded=0;orthogonalLoop=1;jettySize=auto;html=1;" edge="1" parent="1" source="yFCFxImPYAyrYMi73x1P-18" target="yFCFxImPYAyrYMi73x1P-22">
          <mxGeometry relative="1" as="geometry" />
        </mxCell>
        <mxCell id="yFCFxImPYAyrYMi73x1P-25" value="" style="edgeStyle=orthogonalEdgeStyle;rounded=0;orthogonalLoop=1;jettySize=auto;html=1;" edge="1" parent="1" source="yFCFxImPYAyrYMi73x1P-18" target="yFCFxImPYAyrYMi73x1P-22">
          <mxGeometry relative="1" as="geometry" />
        </mxCell>
        <mxCell id="yFCFxImPYAyrYMi73x1P-26" value="store unique" style="edgeLabel;html=1;align=center;verticalAlign=middle;resizable=0;points=[];" vertex="1" connectable="0" parent="yFCFxImPYAyrYMi73x1P-25">
          <mxGeometry x="-0.0947" y="-1" relative="1" as="geometry">
            <mxPoint y="-9" as="offset" />
          </mxGeometry>
        </mxCell>
        <mxCell id="yFCFxImPYAyrYMi73x1P-18" value="URL filters" style="rounded=1;whiteSpace=wrap;html=1;" vertex="1" parent="1">
          <mxGeometry x="320" y="390" width="120" height="60" as="geometry" />
        </mxCell>
        <mxCell id="yFCFxImPYAyrYMi73x1P-44" style="edgeStyle=orthogonalEdgeStyle;rounded=0;orthogonalLoop=1;jettySize=auto;html=1;exitX=1;exitY=0;exitDx=0;exitDy=15;exitPerimeter=0;entryX=0.25;entryY=1;entryDx=0;entryDy=0;" edge="1" parent="1" source="yFCFxImPYAyrYMi73x1P-22" target="yFCFxImPYAyrYMi73x1P-1">
          <mxGeometry relative="1" as="geometry" />
        </mxCell>
        <mxCell id="yFCFxImPYAyrYMi73x1P-22" value="URL storage" style="shape=cylinder3;whiteSpace=wrap;html=1;boundedLbl=1;backgroundOutline=1;size=15;" vertex="1" parent="1">
          <mxGeometry x="230" y="220" width="60" height="80" as="geometry" />
        </mxCell>
        <mxCell id="yFCFxImPYAyrYMi73x1P-31" style="edgeStyle=orthogonalEdgeStyle;rounded=0;orthogonalLoop=1;jettySize=auto;html=1;entryX=0.5;entryY=1;entryDx=0;entryDy=0;entryPerimeter=0;" edge="1" parent="1" source="yFCFxImPYAyrYMi73x1P-16" target="yFCFxImPYAyrYMi73x1P-12">
          <mxGeometry relative="1" as="geometry" />
        </mxCell>
        <mxCell id="yFCFxImPYAyrYMi73x1P-33" value="Inverted index" style="shape=cylinder3;whiteSpace=wrap;html=1;boundedLbl=1;backgroundOutline=1;size=15;" vertex="1" parent="1">
          <mxGeometry x="810" y="150" width="60" height="80" as="geometry" />
        </mxCell>
        <mxCell id="yFCFxImPYAyrYMi73x1P-36" value="Duplicate detection (content and URL)" style="rounded=0;whiteSpace=wrap;html=1;" vertex="1" parent="1">
          <mxGeometry x="60" y="60" width="120" height="60" as="geometry" />
        </mxCell>
        <mxCell id="yFCFxImPYAyrYMi73x1P-38" value="Quick DNS resolution" style="rounded=0;whiteSpace=wrap;html=1;" vertex="1" parent="1">
          <mxGeometry x="60" y="140" width="120" height="60" as="geometry" />
        </mxCell>
        <mxCell id="yFCFxImPYAyrYMi73x1P-39" value="URL filtering, e.g. infinite loops" style="rounded=0;whiteSpace=wrap;html=1;" vertex="1" parent="1">
          <mxGeometry x="60" y="220" width="120" height="60" as="geometry" />
        </mxCell>
        <mxCell id="yFCFxImPYAyrYMi73x1P-40" value="" style="rounded=1;whiteSpace=wrap;html=1;" vertex="1" parent="1">
          <mxGeometry x="790" y="520" width="120" height="60" as="geometry" />
        </mxCell>
        <mxCell id="yFCFxImPYAyrYMi73x1P-41" value="DMCA module etc" style="rounded=1;whiteSpace=wrap;html=1;" vertex="1" parent="1">
          <mxGeometry x="780" y="510" width="120" height="60" as="geometry" />
        </mxCell>
        <mxCell id="yFCFxImPYAyrYMi73x1P-50" value="Drop notification" style="text;html=1;align=center;verticalAlign=middle;resizable=0;points=[];autosize=1;strokeColor=none;fillColor=none;" vertex="1" parent="1">
          <mxGeometry x="520" y="350" width="110" height="30" as="geometry" />
        </mxCell>
        <mxCell id="yFCFxImPYAyrYMi73x1P-54" style="edgeStyle=orthogonalEdgeStyle;rounded=0;orthogonalLoop=1;jettySize=auto;html=1;exitX=0.5;exitY=0;exitDx=0;exitDy=0;exitPerimeter=0;" edge="1" parent="1" source="yFCFxImPYAyrYMi73x1P-51" target="yFCFxImPYAyrYMi73x1P-41">
          <mxGeometry relative="1" as="geometry" />
        </mxCell>
        <mxCell id="yFCFxImPYAyrYMi73x1P-56" style="edgeStyle=orthogonalEdgeStyle;rounded=0;orthogonalLoop=1;jettySize=auto;html=1;" edge="1" parent="1" source="yFCFxImPYAyrYMi73x1P-51" target="yFCFxImPYAyrYMi73x1P-29">
          <mxGeometry relative="1" as="geometry">
            <Array as="points">
              <mxPoint x="640" y="410" />
            </Array>
          </mxGeometry>
        </mxCell>
        <mxCell id="yFCFxImPYAyrYMi73x1P-51" value="" style="shape=cylinder3;whiteSpace=wrap;html=1;boundedLbl=1;backgroundOutline=1;size=15;rotation=90;" vertex="1" parent="1">
          <mxGeometry x="735" y="345" width="30" height="80" as="geometry" />
        </mxCell>
        <mxCell id="yFCFxImPYAyrYMi73x1P-52" value="Kafka" style="text;strokeColor=none;align=center;fillColor=none;html=1;verticalAlign=middle;whiteSpace=wrap;rounded=0;" vertex="1" parent="1">
          <mxGeometry x="730" y="340" width="60" height="10" as="geometry" />
        </mxCell>
        <mxCell id="yFCFxImPYAyrYMi73x1P-53" style="edgeStyle=orthogonalEdgeStyle;rounded=0;orthogonalLoop=1;jettySize=auto;html=1;exitX=0.5;exitY=1;exitDx=0;exitDy=0;entryX=0.5;entryY=1;entryDx=0;entryDy=0;entryPerimeter=0;" edge="1" parent="1" source="yFCFxImPYAyrYMi73x1P-28" target="yFCFxImPYAyrYMi73x1P-51">
          <mxGeometry relative="1" as="geometry" />
        </mxCell>
      </root>
    </mxGraphModel>
  </diagram>
</mxfile>
